<?xml version="1.0" standalone="no"?>
<!DOCTYPE svg PUBLIC "-//W3C//DTD SVG 20010904//EN"
 "http://www.w3.org/TR/2001/REC-SVG-20010904/DTD/svg10.dtd">
<svg version="1.0" xmlns="http://www.w3.org/2000/svg"
 width="285.000000pt" height="285.000000pt" viewBox="0 0 285.000000 285.000000"
 preserveAspectRatio="xMidYMid meet">
<metadata>
Created by potrace 1.14, written by Peter Selinger 2001-2017
</metadata>
<g transform="translate(0.000000,285.000000) scale(0.100000,-0.100000)"
fill="#000000" stroke="none">
<path d="M993 2371 c-11 -11 -30 -35 -42 -54 -14 -24 -35 -40 -68 -52 -80 -29
-263 -126 -343 -180 -94 -63 -221 -187 -249 -242 -40 -79 -21 -148 47 -174 30
-12 76 -3 93 17 16 20 -3 41 -52 56 -59 17 -65 30 -38 83 29 57 131 156 233
225 81 54 303 166 312 157 3 -3 -6 -31 -19 -63 -39 -92 -297 -832 -297 -850 0
-7 -282 -93 -423 -129 -118 -31 -147 -42 -145 -54 2 -9 12 -15 23 -14 152 14
470 21 481 10 3 -3 -31 -119 -76 -258 -92 -287 -89 -279 -97 -335 -5 -37 -3
-43 18 -49 32 -10 55 21 69 93 9 48 95 371 134 506 l11 38 70 -6 c162 -14 353
-49 531 -95 169 -45 223 -69 271 -118 37 -38 46 -42 64 -33 23 13 38 46 32 71
-9 31 -36 47 -120 68 -84 22 -392 85 -461 96 -21 3 -47 7 -59 9 -12 3 -43 7
-70 11 -26 4 -59 8 -73 10 -14 2 -56 7 -95 11 -38 3 -73 8 -77 10 -3 2 2 32
11 66 l18 63 175 71 c501 202 800 409 913 632 31 60 37 82 37 139 1 80 -14
116 -71 165 -99 84 -315 107 -551 58 -61 -12 -60 -13 -60 9 0 51 -22 64 -57
32z m11 -56 c-4 -8 -11 -15 -16 -15 -6 0 -5 6 2 15 7 8 14 15 16 15 2 0 1 -7
-2 -15z m567 -33 c230 -90 146 -355 -191 -598 -89 -65 -216 -138 -361 -208
-75 -36 -140 -66 -144 -66 -4 0 -21 -7 -38 -15 -75 -35 -207 -82 -212 -76 -2
4 23 95 56 202 33 107 67 217 76 244 24 79 133 365 159 416 20 41 49 67 61 55
7 -7 -78 -210 -149 -354 -68 -138 -76 -172 -43 -172 15 0 45 58 110 205 15 34
120 301 128 327 12 35 191 67 362 64 106 -2 140 -7 186 -24z m-1030 -1089
l-17 -48 -127 0 c-70 0 -127 3 -127 7 0 4 26 14 58 23 31 9 93 29 137 44 44
16 83 26 87 24 3 -1 -2 -24 -11 -50z"/>
<path d="M2327 2323 c-24 -38 -157 -315 -157 -325 0 -8 5 -19 10 -24 8 -8 0
-41 -26 -110 -20 -54 -58 -166 -85 -248 -27 -82 -50 -151 -52 -153 -3 -2 -69
-30 -149 -62 -132 -54 -171 -65 -220 -62 -49 3 12 97 81 125 46 18 55 29 46
56 -12 38 -59 34 -108 -8 -10 -9 -23 -17 -30 -18 -7 -2 -47 -10 -90 -18 -43
-9 -116 -16 -160 -16 -71 0 -84 3 -95 20 -16 26 -40 25 -92 -2 -33 -18 -47
-35 -71 -86 -75 -156 -31 -273 65 -174 34 34 106 164 106 191 0 7 20 11 53 12
28 0 66 3 82 5 73 10 156 25 170 30 13 5 13 2 0 -30 -26 -63 -15 -101 36 -119
26 -9 93 10 231 65 70 28 130 49 133 47 2 -3 -2 -26 -10 -51 -24 -82 -28 -143
-10 -162 9 -9 21 -14 25 -11 5 3 25 38 46 78 35 69 148 242 164 252 5 3 8 -11
7 -31 -1 -24 5 -41 17 -49 15 -12 30 -9 99 22 119 51 113 51 109 1 -3 -48 14
-76 48 -83 33 -6 105 25 231 100 136 81 122 71 117 85 -2 8 -41 -8 -103 -40
-158 -82 -178 -92 -207 -101 -36 -10 -47 7 -14 22 28 13 68 83 59 105 -13 34
-41 36 -95 6 -70 -39 -216 -97 -223 -90 -4 3 1 32 9 64 13 51 13 61 1 73 -12
12 -18 10 -46 -20 -40 -43 -139 -174 -164 -216 -19 -32 -39 -46 -30 -20 3 6
21 68 40 137 64 224 199 616 260 755 23 52 24 63 10 75 -7 6 -15 7 -18 3z
m223 -788 c0 -15 -34 -55 -46 -55 -12 0 -12 5 1 30 9 17 22 30 30 30 8 0 15
-2 15 -5z m-1290 -116 c0 -26 -61 -138 -90 -164 l-32 -30 7 35 c9 44 51 139
71 162 16 16 44 15 44 -3z"/>
</g>
</svg>
